<mxfile host="app.diagrams.net" agent="Mozilla/5.0 (Windows NT 10.0; Win64; x64) AppleWebKit/537.36 (KHTML, like Gecko) Chrome/140.0.0.0 Safari/537.36" version="28.2.5">
  <diagram name="第 1 页" id="EPBrSDRG0zJyiAR6SbRj">
    <mxGraphModel dx="788" dy="469" grid="1" gridSize="10" guides="1" tooltips="1" connect="1" arrows="1" fold="1" page="1" pageScale="1" pageWidth="827" pageHeight="1169" math="1" shadow="0">
      <root>
        <mxCell id="0" />
        <mxCell id="1" parent="0" />
        <mxCell id="kFLJszpMfA19gXTyb8MC-3" value="" style="edgeStyle=orthogonalEdgeStyle;rounded=0;orthogonalLoop=1;jettySize=auto;html=1;" edge="1" parent="1" source="xlfHlpsQUvzsU2Yh09Kq-1" target="kFLJszpMfA19gXTyb8MC-2">
          <mxGeometry relative="1" as="geometry" />
        </mxCell>
        <mxCell id="xlfHlpsQUvzsU2Yh09Kq-1" value="\[SSSD\] iter." style="rounded=1;whiteSpace=wrap;html=1;" parent="1" vertex="1">
          <mxGeometry x="40" y="90" width="120" height="100" as="geometry" />
        </mxCell>
        <mxCell id="kFLJszpMfA19gXTyb8MC-5" value="" style="edgeStyle=orthogonalEdgeStyle;rounded=0;orthogonalLoop=1;jettySize=auto;html=1;" edge="1" parent="1" source="kFLJszpMfA19gXTyb8MC-2" target="kFLJszpMfA19gXTyb8MC-4">
          <mxGeometry relative="1" as="geometry" />
        </mxCell>
        <mxCell id="kFLJszpMfA19gXTyb8MC-2" value="\[autoFRK\] for this iter. in \[SSSD\]" style="rounded=1;whiteSpace=wrap;html=1;" vertex="1" parent="1">
          <mxGeometry x="240" y="90" width="120" height="100" as="geometry" />
        </mxCell>
        <mxCell id="kFLJszpMfA19gXTyb8MC-7" value="" style="edgeStyle=orthogonalEdgeStyle;rounded=0;orthogonalLoop=1;jettySize=auto;html=1;" edge="1" parent="1" source="kFLJszpMfA19gXTyb8MC-4" target="kFLJszpMfA19gXTyb8MC-6">
          <mxGeometry relative="1" as="geometry" />
        </mxCell>
        <mxCell id="kFLJszpMfA19gXTyb8MC-4" value="calc. error" style="rounded=1;whiteSpace=wrap;html=1;" vertex="1" parent="1">
          <mxGeometry x="440" y="90" width="120" height="100" as="geometry" />
        </mxCell>
        <mxCell id="kFLJszpMfA19gXTyb8MC-6" value="return this error for next iter." style="rounded=1;whiteSpace=wrap;html=1;" vertex="1" parent="1">
          <mxGeometry x="640" y="90" width="120" height="100" as="geometry" />
        </mxCell>
      </root>
    </mxGraphModel>
  </diagram>
</mxfile>
